<?xml version="1.0" encoding="UTF-8"?>
<svg version="1.1" xmlns="http://www.w3.org/2000/svg" width="250" height="250">
<path d="M0 0 C82.5 0 165 0 250 0 C250 82.5 250 165 250 250 C167.5 250 85 250 0 250 C0 167.5 0 85 0 0 Z " fill="#000000" transform="translate(0,0)"/>
<path d="M0 0 C4.27356668 2.60071267 7.74924258 5.50431488 11.27099609 9.04394531 C11.75955078 9.53220795 12.24810547 10.02047058 12.75146484 10.52352905 C14.34691624 12.12036117 15.935187 13.72413334 17.5234375 15.328125 C18.63543572 16.44385783 19.74787964 17.5591466 20.86074829 18.67401123 C23.77498568 21.5958498 26.68316411 24.52364627 29.59008789 27.45275879 C32.56290698 30.44611232 35.54146377 33.43374463 38.51953125 36.421875 C44.35195936 42.27569095 50.17799392 48.13581863 56 54 C59.76809948 52.43507719 62.14055675 50.09509513 64.99633789 47.21484375 C65.47978165 46.73008575 65.9632254 46.24532776 66.46131897 45.74588013 C68.05308523 44.14763994 69.63775515 42.54254569 71.22265625 40.9375 C72.33025393 39.82362917 73.43837016 38.71027376 74.54698181 37.59741211 C77.46155894 34.66954491 80.37051503 31.7361616 83.27789307 28.80114746 C87.93368405 24.10220455 92.59621763 19.40997591 97.26202202 14.72097778 C98.89023113 13.08255017 100.51498156 11.44074949 102.13941956 9.79858398 C103.13718243 8.79399269 104.13505553 7.78951087 105.13305664 6.78515625 C106.00257462 5.90738525 106.87209259 5.02961426 107.76795959 4.12524414 C111.85383747 0.23486295 114.34370511 -0.44400509 119.77734375 -0.3203125 C123.11256999 0.16033522 124.75725465 1.55336871 127 4 C129.27709501 7.77210503 129.26384266 10.43406535 128.65505409 14.71187019 C127.5129651 18.70123215 125.01650538 21.05148068 122.07495117 23.86499023 C121.4570018 24.4873204 120.83905243 25.10965057 120.20237732 25.75083923 C118.16792881 27.789887 116.10647547 29.79899298 114.04296875 31.80859375 C112.61748351 33.22422467 111.19362216 34.6414925 109.77131653 36.06031799 C106.79292808 39.02345547 103.8021318 41.9732165 100.80053711 44.9128418 C96.95323968 48.68084713 93.12792605 52.47020804 89.31040478 56.26835537 C85.66577826 59.89303861 82.01132223 63.50773947 78.35546875 67.12109375 C77.31073426 68.15564099 77.31073426 68.15564099 76.24489403 69.21108818 C74.27299762 71.15982502 72.29435866 73.10142394 70.31323242 75.04077148 C69.7307373 75.61788879 69.14824219 76.1950061 68.5480957 76.78961182 C64.87057606 80.37013278 62.24165464 82.70761026 57.125 83.375 C50.69119088 82.60294291 46.24879571 77.54379247 41.85864258 73.13330078 C41.27737106 72.5571402 40.69609955 71.98097961 40.09721375 71.38735962 C38.19115624 69.49512028 36.29253564 67.595627 34.39453125 65.6953125 C33.06529744 64.36996901 31.73584142 63.04484836 30.40617371 61.71994019 C27.62649851 58.94770984 24.85070854 56.17165788 22.07739258 53.39306641 C18.52837169 49.83824397 14.96809846 46.294934 11.40460682 42.75462532 C8.65841098 40.02317863 5.91919179 37.28481786 3.18192101 34.54442978 C1.8721752 33.23519628 0.56007343 31.92831517 -0.75444603 30.62387466 C-2.5925129 28.79818155 -4.42073674 26.9631511 -6.24682617 25.12548828 C-6.78765839 24.5922998 -7.3284906 24.05911133 -7.88571167 23.50976562 C-11.07858402 20.27212873 -13.30722339 17.22972565 -15 13 C-14.90680178 7.6877012 -13.69051529 4.80234908 -10 1 C-6.83350487 -0.58324757 -3.42541806 -0.64374236 0 0 Z " fill="#F8F8F8" transform="translate(68,84)"/>
<path d="M0 0 C2.64 0 5.28 0 8 0 C5.33333333 2.66666667 2.66666667 5.33333333 0 8 C0 5.36 0 2.72 0 0 Z " fill="#E8E8E8" transform="translate(0,0)"/>
<path d="M0 0 C1.16959987 0.97566112 2.33561177 1.955625 3.5 2.9375 C4.1496875 3.48277344 4.799375 4.02804688 5.46875 4.58984375 C5.9740625 5.05519531 6.479375 5.52054688 7 6 C7 6.33 7 6.66 7 7 C4.69 7 2.38 7 0 7 C0 4.69 0 2.38 0 0 Z " fill="#F3F3F3" transform="translate(0,243)"/>
<path d="M0 0 C2.31 0 4.62 0 7 0 C7 2.31 7 4.62 7 7 C5.83040013 6.02433888 4.66438823 5.044375 3.5 4.0625 C2.8503125 3.51722656 2.200625 2.97195312 1.53125 2.41015625 C1.0259375 1.94480469 0.520625 1.47945313 0 1 C0 0.67 0 0.34 0 0 Z " fill="#F3F3F3" transform="translate(243,0)"/>
<path d="M0 0 C0.33 0 0.66 0 1 0 C1 1.98 1 3.96 1 6 C-0.98 6 -2.96 6 -5 6 C-3.35830472 3.97945196 -1.69088222 1.97956942 0 0 Z " fill="#E8E8E8" transform="translate(249,244)"/>
</svg>
